<svg preserveAspectRatio="xMinYMid slice" xmlns="http://www.w3.org/2000/svg" viewBox="0 0 78 2000.4"><g fill="#ffd175"><path d="M78 215V89c-5-10-10-21-13-33a63 63 0 01-2-12 58 58 0 010-6 62 62 0 011-10c2-8 7-19 14-25V0h-2a44 44 0 00-13 2C50 6 38 16 33 28c-11 25-5 56 3 78l18 44c4 10 8 20 7 32s-8 23-19 23c5 6 12 10 20 11h1a36 36 0 0015-1z"/><path d="M78 428V303c-5-11-10-22-13-33a63 63 0 01-2-13 58 58 0 010-6 62 62 0 011-9c2-9 7-20 14-26v-3a43 43 0 00-15 3h-1c-13 4-24 14-29 25-11 26-5 56 3 78l18 44c4 10 8 21 7 32s-8 23-19 23c5 7 13 10 21 11a36 36 0 0015-1z"/><path d="M78 642V517c-5-11-10-22-13-33a63 63 0 01-2-13 58 58 0 010-6 62 62 0 011-9c2-9 7-20 14-26v-3a43 43 0 00-15 2c-13 5-25 14-30 26-11 26-5 56 3 78l18 44c4 10 8 21 7 32s-8 23-19 23c5 6 13 10 21 11a36 36 0 0015-1z"/><path d="M78 856V730c-5-10-10-21-13-32a63 63 0 01-2-13 58 58 0 010-6 62 62 0 011-9c2-9 7-20 14-26v-3a43 43 0 00-15 2c-13 4-25 14-30 26-11 26-5 56 3 78l18 44c4 10 8 20 7 32s-8 23-19 23c5 6 13 10 21 11a36 36 0 0015-1z"/><path d="M78 1070V944c-5-10-10-21-13-33a63 63 0 01-2-12 58 58 0 010-6 62 62 0 011-10c2-8 7-20 14-25v-3a44 44 0 00-15 2c-13 4-25 14-30 26-11 25-5 56 3 78l18 44c4 10 8 20 7 31s-8 24-19 24c5 6 13 10 21 11a36 36 0 0015-1z"/><path d="M78 1283v-125c-5-10-10-21-13-33a63 63 0 01-2-12 58 58 0 010-6 62 62 0 011-10c2-8 7-20 14-26v-2a43 43 0 00-15 2c-13 4-25 14-30 26-11 25-5 55 3 78l18 44c4 10 8 20 7 31s-8 23-19 23c5 7 13 11 21 12a36 36 0 0015-2z"/><path d="M78 1497v-125c-5-11-10-21-13-33a62 62 0 01-2-12 58 58 0 010-6 62 62 0 011-10c2-9 7-20 14-26v-2a43 43 0 00-15 2c-13 4-25 14-30 26-11 25-5 55 3 77l18 45c4 10 8 20 7 31s-8 23-19 23c5 7 13 11 21 12a36 36 0 0015-2z"/><path d="M78 1711v-125c-5-11-10-22-13-33a63 63 0 01-2-12 58 58 0 010-7 62 62 0 011-9c2-9 7-20 14-26v-2a44 44 0 00-15 2c-13 4-25 14-30 25-11 26-5 56 3 78l18 44c4 11 8 21 7 32s-8 23-19 23c5 7 13 11 21 12a36 36 0 0015-2z"/><path d="M78 1925v-125c-5-11-10-22-13-33a63 63 0 01-2-13 58 58 0 010-6 62 62 0 011-9c2-9 7-20 14-26v-3a43 43 0 00-15 3c-13 4-25 13-30 25-11 26-5 56 3 78l18 44c4 10 8 21 7 32s-8 23-19 23c5 7 13 10 21 11a36 36 0 0015-1z"/><path d="M28 2000h44a121 121 0 01-7-19 63 63 0 01-2-13 58 58 0 010-6 62 62 0 011-9c2-9 7-20 14-26v-3a43 43 0 00-15 2c-13 5-25 14-30 26-7 15-7 32-5 48z"/><path d="M63 3h15v1997H63z"/><circle cx="33.9" cy="174.3" r="14.3"/><circle cx="10.9" cy="21.3" r="10.9"/><circle cx="14.1" cy="90.7" r="6.4"/><circle cx="33.9" cy="389.6" r="14.3"/><circle cx="10.9" cy="236.6" r="10.9"/><circle cx="14.1" cy="306.1" r="6.4"/><circle cx="33.9" cy="605" r="14.3"/><circle cx="10.9" cy="452" r="10.9"/><circle cx="14.1" cy="521.4" r="6.4"/><circle cx="33.9" cy="818.4" r="14.3"/><circle cx="10.9" cy="667.4" r="10.9"/><circle cx="14.1" cy="736.8" r="6.4"/><circle cx="33.9" cy="1033.1" r="14.3"/><circle cx="10.9" cy="882.7" r="10.9"/><circle cx="14.1" cy="952.1" r="6.4"/><circle cx="33.9" cy="1242.7" r="14.3"/><circle cx="10.9" cy="1098.1" r="10.9"/><circle cx="14.1" cy="1167.5" r="6.4"/><circle cx="33.9" cy="1458.1" r="14.3"/><circle cx="10.9" cy="1313.4" r="10.9"/><circle cx="14.1" cy="1382.9" r="6.4"/><circle cx="33.9" cy="1673.4" r="14.3"/><circle cx="10.9" cy="1528.8" r="10.9"/><circle cx="14.1" cy="1598.2" r="6.4"/><circle cx="33.9" cy="1889.1" r="14.3"/><circle cx="10.9" cy="1744.1" r="10.9"/><circle cx="14.1" cy="1813.6" r="6.4"/><circle cx="10.9" cy="1959.5" r="10.9"/></g></svg>